<?xml version="1.0" encoding="utf-8"?>
<!-- Generator: Adobe Illustrator 15.0.2, SVG Export Plug-In . SVG Version: 6.00 Build 0)  -->
<!DOCTYPE svg PUBLIC "-//W3C//DTD SVG 1.1//EN" "http://www.w3.org/Graphics/SVG/1.1/DTD/svg11.dtd">
<svg version="1.1" id="Layer_1" xmlns="http://www.w3.org/2000/svg" xmlns:xlink="http://www.w3.org/1999/xlink" x="0px" y="0px"
	 width="900px" height="100px" viewBox="0 0 900 100" enable-background="new 0 0 900 100" xml:space="preserve">
<circle fill="none" stroke="#231F20" stroke-width="3" stroke-miterlimit="10" cx="52.119" cy="53.686" r="37.59"/>
<polyline fill="none" stroke="#231F20" stroke-width="2" stroke-miterlimit="10" points="47.935,34.826 49.901,36.823 
	52.415,33.879 54.209,37.828 57.177,36.457 "/>
<g>
	<path fill="none" stroke="#231F20" stroke-width="2" stroke-miterlimit="10" d="M34.943,69.39c2.861,0,2.861,3.588,5.723,3.588
		c2.862,0,2.862-3.588,5.724-3.588c2.86,0,2.86,3.588,5.721,3.588c2.863,0,2.863-3.588,5.726-3.588c2.865,0,2.865,3.588,5.729,3.588
		s2.865-3.588,5.73-3.588"/>
</g>
<g>
	<path fill="none" stroke="#231F20" stroke-width="2" stroke-miterlimit="10" d="M34.943,74.328c2.861,0,2.861,3.588,5.723,3.588
		c2.862,0,2.862-3.588,5.724-3.588c2.86,0,2.86,3.588,5.721,3.588c2.863,0,2.863-3.588,5.726-3.588c2.865,0,2.865,3.588,5.729,3.588
		s2.865-3.588,5.73-3.588"/>
</g>
<g>
	<path fill="none" stroke="#231F20" stroke-width="2" stroke-miterlimit="10" d="M34.943,79.021c2.861,0,2.861,3.588,5.723,3.588
		c2.862,0,2.862-3.588,5.724-3.588c2.86,0,2.86,3.588,5.721,3.588c2.863,0,2.863-3.588,5.726-3.588c2.865,0,2.865,3.588,5.729,3.588
		s2.865-3.588,5.73-3.588"/>
</g>
<polyline fill="none" stroke="#231F20" stroke-width="2" stroke-miterlimit="10" points="36.223,56.708 46.746,37.047 
	52.119,27.007 68.016,56.708 "/>
<polygon fill="#FFFFFF" stroke="#231F20" stroke-width="2" stroke-miterlimit="10" points="20.326,64.687 30.85,45.025 
	36.223,34.986 52.119,64.687 "/>
<polyline fill="none" stroke="#231F20" stroke-width="2" stroke-miterlimit="10" points="32.038,42.804 34.005,44.802 
	36.518,41.858 38.312,45.806 41.28,44.435 "/>
<polygon fill="#FFFFFF" stroke="#231F20" stroke-width="2" stroke-miterlimit="10" points="52.119,64.687 62.643,45.025 
	68.016,34.986 83.913,64.687 "/>
<polyline fill="none" stroke="#231F20" stroke-width="2" stroke-miterlimit="10" points="63.831,42.804 65.798,44.802 
	68.311,41.858 70.106,45.806 73.073,44.435 "/>
<g>
	<path d="M143.938,74.934c-3.843,3.345-9.157,5.018-15.941,5.018c-6.88,0-12.205-1.66-15.977-4.981
		c-3.771-3.32-5.658-8.444-5.658-15.372V28h11.173v31.598c0,1.377,0.118,2.729,0.356,4.057c0.237,1.328,0.735,2.503,1.494,3.522
		c0.759,1.021,1.815,1.851,3.167,2.491s3.167,0.96,5.444,0.96c3.985,0,6.736-0.889,8.255-2.668c1.518-1.779,2.277-4.566,2.277-8.362
		V28h11.173v31.598C149.703,66.478,147.781,71.589,143.938,74.934z"/>
	<path d="M169.842,67.853v10.96h-11.173v-10.96H169.842z"/>
	<path d="M187.635,66.288c0.616,1.187,1.434,2.147,2.455,2.883c1.02,0.735,2.217,1.28,3.594,1.637
		c1.375,0.355,2.799,0.533,4.27,0.533c0.997,0,2.064-0.082,3.203-0.249c1.139-0.166,2.206-0.485,3.202-0.961
		c0.997-0.474,1.826-1.126,2.491-1.957c0.664-0.829,0.996-1.886,0.996-3.167c0-1.375-0.439-2.49-1.316-3.345
		c-0.878-0.854-2.028-1.565-3.452-2.135s-3.037-1.067-4.839-1.495c-1.804-0.427-3.629-0.9-5.48-1.423
		c-1.898-0.474-3.748-1.055-5.551-1.743c-1.804-0.688-3.416-1.577-4.839-2.669c-1.423-1.091-2.574-2.455-3.452-4.092
		c-0.878-1.637-1.316-3.617-1.316-5.942c0-2.608,0.557-4.875,1.672-6.796c1.114-1.921,2.573-3.522,4.377-4.804
		c1.802-1.281,3.843-2.229,6.12-2.847c2.277-0.616,4.555-0.925,6.832-0.925c2.656,0,5.206,0.297,7.65,0.89
		c2.443,0.594,4.613,1.554,6.512,2.882c1.897,1.329,3.404,3.025,4.519,5.088c1.114,2.064,1.672,4.567,1.672,7.508h-10.817
		c-0.096-1.518-0.416-2.775-0.96-3.772c-0.546-0.996-1.27-1.779-2.171-2.349c-0.902-0.569-1.934-0.972-3.096-1.209
		c-1.163-0.237-2.432-0.356-3.807-0.356c-0.902,0-1.804,0.096-2.705,0.285c-0.902,0.19-1.72,0.522-2.455,0.996
		c-0.736,0.475-1.341,1.068-1.815,1.779c-0.475,0.712-0.711,1.614-0.711,2.705c0,0.996,0.189,1.803,0.569,2.419
		c0.379,0.617,1.126,1.187,2.242,1.708c1.114,0.522,2.656,1.044,4.626,1.566c1.968,0.522,4.542,1.186,7.721,1.993
		c0.949,0.19,2.265,0.534,3.95,1.032c1.684,0.498,3.356,1.293,5.018,2.384c1.66,1.092,3.096,2.551,4.305,4.377
		c1.21,1.827,1.815,4.164,1.815,7.01c0,2.325-0.452,4.483-1.352,6.476c-0.902,1.993-2.242,3.713-4.021,5.16s-3.985,2.574-6.619,3.38
		c-2.633,0.807-5.682,1.21-9.145,1.21c-2.8,0-5.516-0.345-8.149-1.032c-2.633-0.687-4.958-1.767-6.974-3.237
		c-2.017-1.471-3.618-3.346-4.804-5.623c-1.187-2.277-1.756-4.981-1.708-8.112h10.817C186.709,63.655,187.018,65.102,187.635,66.288
		z"/>
	<path d="M235.813,67.853v10.96H224.64v-10.96H235.813z"/>
	<path d="M275.951,28l21.208,34.089h0.142V28h10.461v50.813h-11.173l-21.137-34.018h-0.142v34.018h-10.461V28H275.951z"/>
	<path d="M342.918,28l19.001,50.813h-11.6l-3.843-11.315h-19.001l-3.985,11.315h-11.244L331.46,28H342.918z M343.559,59.171
		l-6.405-18.646h-0.143l-6.619,18.646H343.559z"/>
	<path d="M355.8,37.394V28h41.633v9.394h-15.23v41.419h-11.174V37.394H355.8z"/>
	<path d="M414.44,28v50.813h-11.174V28H414.44z"/>
	<path d="M423.763,43.052c1.139-3.249,2.775-6.084,4.911-8.504c2.135-2.419,4.756-4.316,7.863-5.693
		c3.107-1.375,6.606-2.063,10.497-2.063c3.938,0,7.448,0.688,10.533,2.063c3.083,1.377,5.693,3.274,7.828,5.693
		c2.135,2.42,3.771,5.255,4.91,8.504c1.139,3.25,1.708,6.773,1.708,10.568c0,3.701-0.569,7.152-1.708,10.355
		c-1.139,3.202-2.775,5.99-4.91,8.361c-2.135,2.373-4.745,4.234-7.828,5.587c-3.085,1.353-6.596,2.028-10.533,2.028
		c-3.891,0-7.39-0.676-10.497-2.028s-5.729-3.214-7.863-5.587c-2.136-2.371-3.772-5.159-4.911-8.361
		c-1.139-3.203-1.708-6.654-1.708-10.355C422.055,49.825,422.624,46.302,423.763,43.052z M433.976,59.847
		c0.498,2.018,1.292,3.832,2.384,5.444c1.091,1.613,2.514,2.906,4.27,3.879c1.755,0.973,3.89,1.458,6.405,1.458
		c2.515,0,4.649-0.485,6.405-1.458c1.755-0.973,3.178-2.266,4.27-3.879c1.091-1.612,1.886-3.427,2.385-5.444
		c0.498-2.016,0.747-4.092,0.747-6.227c0-2.229-0.249-4.388-0.747-6.476c-0.499-2.087-1.294-3.95-2.385-5.586
		c-1.092-1.637-2.515-2.941-4.27-3.915c-1.756-0.972-3.891-1.459-6.405-1.459c-2.516,0-4.65,0.487-6.405,1.459
		c-1.756,0.973-3.179,2.277-4.27,3.915c-1.092,1.637-1.886,3.499-2.384,5.586c-0.498,2.088-0.747,4.247-0.747,6.476
		C433.229,55.755,433.478,57.831,433.976,59.847z"/>
	<path d="M490.73,28l21.207,34.089h0.143V28h10.462v50.813h-11.174l-21.136-34.018h-0.143v34.018h-10.462V28H490.73z"/>
	<path d="M557.698,28l19.001,50.813h-11.6l-3.844-11.315h-19.001l-3.985,11.315h-11.244L546.24,28H557.698z M558.338,59.171
		l-6.404-18.646h-0.143l-6.618,18.646H558.338z"/>
	<path d="M592.284,28v41.419h24.766v9.394H581.11V28H592.284z"/>
	<path d="M666.012,28c3.178,0,5.882,0.463,8.113,1.388c2.229,0.925,4.044,2.147,5.443,3.666c1.399,1.519,2.42,3.25,3.061,5.195
		c0.641,1.946,0.961,3.962,0.961,6.049c0,2.041-0.32,4.045-0.961,6.014c-0.641,1.969-1.661,3.713-3.061,5.23
		c-1.399,1.519-3.214,2.74-5.443,3.665c-2.231,0.925-4.936,1.388-8.113,1.388H654.27v18.219h-11.174V28H666.012z M662.951,51.912
		c1.281,0,2.515-0.095,3.701-0.285c1.186-0.189,2.229-0.557,3.131-1.103c0.901-0.545,1.625-1.316,2.171-2.313
		c0.545-0.996,0.818-2.301,0.818-3.914c0-1.612-0.273-2.918-0.818-3.914c-0.546-0.997-1.27-1.767-2.171-2.313
		c-0.901-0.545-1.945-0.913-3.131-1.103c-1.187-0.189-2.42-0.285-3.701-0.285h-8.682v15.229H662.951z"/>
	<path d="M710.634,28l19.001,50.813h-11.6l-3.844-11.315H695.19l-3.985,11.315h-11.244L699.176,28H710.634z M711.273,59.171
		l-6.404-18.646h-0.143l-6.618,18.646H711.273z"/>
	<path d="M761.446,28c2.277,0,4.329,0.368,6.156,1.103c1.825,0.736,3.392,1.744,4.696,3.025c1.305,1.281,2.301,2.764,2.989,4.448
		c0.688,1.685,1.032,3.5,1.032,5.444c0,2.989-0.63,5.575-1.886,7.757c-1.258,2.183-3.31,3.843-6.156,4.982v0.142
		c1.375,0.38,2.514,0.961,3.416,1.744c0.9,0.783,1.637,1.708,2.206,2.776c0.569,1.067,0.984,2.241,1.245,3.522
		s0.438,2.562,0.534,3.843c0.047,0.808,0.095,1.756,0.143,2.847c0.046,1.092,0.13,2.206,0.249,3.345
		c0.117,1.139,0.308,2.219,0.569,3.238c0.26,1.021,0.651,1.886,1.174,2.598h-11.173c-0.617-1.612-0.996-3.534-1.139-5.765
		c-0.143-2.229-0.356-4.364-0.641-6.405c-0.38-2.656-1.187-4.601-2.42-5.835c-1.234-1.233-3.25-1.851-6.049-1.851h-11.173v19.855
		h-11.174V28H761.446z M757.461,50.987c2.562,0,4.483-0.569,5.765-1.708s1.921-2.989,1.921-5.551c0-2.466-0.64-4.258-1.921-5.373
		c-1.281-1.114-3.203-1.672-5.765-1.672h-12.24v14.304H757.461z"/>
	<path d="M796.602,28v21.065L816.457,28h13.948L810.55,48.069l21.777,30.744h-14.021l-15.301-22.844l-6.404,6.476v16.368h-11.174V28
		H796.602z"/>
	<path d="M845.349,66.288c0.616,1.187,1.435,2.147,2.455,2.883s2.218,1.28,3.595,1.637c1.375,0.355,2.799,0.533,4.27,0.533
		c0.996,0,2.063-0.082,3.202-0.249c1.139-0.166,2.206-0.485,3.203-0.961c0.996-0.474,1.825-1.126,2.49-1.957
		c0.664-0.829,0.997-1.886,0.997-3.167c0-1.375-0.439-2.49-1.317-3.345c-0.878-0.854-2.028-1.565-3.451-2.135
		s-3.037-1.067-4.839-1.495c-1.804-0.427-3.63-0.9-5.48-1.423c-1.897-0.474-3.748-1.055-5.551-1.743
		c-1.804-0.688-3.416-1.577-4.839-2.669c-1.424-1.091-2.574-2.455-3.452-4.092c-0.878-1.637-1.316-3.617-1.316-5.942
		c0-2.608,0.557-4.875,1.673-6.796c1.113-1.921,2.572-3.522,4.376-4.804c1.803-1.281,3.844-2.229,6.12-2.847
		c2.277-0.616,4.555-0.925,6.832-0.925c2.657,0,5.207,0.297,7.65,0.89c2.443,0.594,4.614,1.554,6.512,2.882
		c1.897,1.329,3.404,3.025,4.52,5.088c1.114,2.064,1.673,4.567,1.673,7.508h-10.817c-0.096-1.518-0.416-2.775-0.961-3.772
		c-0.546-0.996-1.271-1.779-2.171-2.349c-0.901-0.569-1.934-0.972-3.096-1.209c-1.163-0.237-2.432-0.356-3.808-0.356
		c-0.901,0-1.804,0.096-2.704,0.285c-0.901,0.19-1.72,0.522-2.455,0.996c-0.736,0.475-1.341,1.068-1.814,1.779
		c-0.476,0.712-0.712,1.614-0.712,2.705c0,0.996,0.188,1.803,0.569,2.419c0.379,0.617,1.126,1.187,2.241,1.708
		c1.114,0.522,2.657,1.044,4.626,1.566c1.969,0.522,4.543,1.186,7.722,1.993c0.948,0.19,2.266,0.534,3.95,1.032
		c1.684,0.498,3.355,1.293,5.017,2.384c1.66,1.092,3.096,2.551,4.306,4.377c1.21,1.827,1.814,4.164,1.814,7.01
		c0,2.325-0.451,4.483-1.352,6.476c-0.902,1.993-2.242,3.713-4.021,5.16c-1.778,1.447-3.984,2.574-6.618,3.38
		c-2.633,0.807-5.682,1.21-9.145,1.21c-2.8,0-5.516-0.345-8.148-1.032c-2.634-0.687-4.959-1.767-6.975-3.237
		c-2.018-1.471-3.618-3.346-4.804-5.623c-1.187-2.277-1.756-4.981-1.708-8.112h10.817C844.424,63.655,844.731,65.102,845.349,66.288
		z"/>
</g>
</svg>
